HIERARCHY
ROOT Bip001_Pelvis
{
  OFFSET 33.2923 95.8902 -28.781
  CHANNELS 6 Xposition Yposition Zposition Zrotation Xrotation Yrotation
  JOINT Bip001_Spine
  {
    OFFSET 1.4188e-005 10.2191 -0.0116013
    CHANNELS 3 Zrotation Xrotation Yrotation
    JOINT Bip001_L_Thigh
    {
      OFFSET 11.0458 -10.2192 0.0116197
      CHANNELS 3 Zrotation Xrotation Yrotation
      JOINT Bip001_L_Calf
      {
        OFFSET -0.707118 -44.0221 0.360014
        CHANNELS 3 Zrotation Xrotation Yrotation
        JOINT Bip001_L_Foot
        {
          OFFSET -0.651902 -40.5938 -3.56146
          CHANNELS 3 Zrotation Xrotation Yrotation
          JOINT Bip001_L_Toe0
          {
            OFFSET 0.0530839 -10.2181 13.1504
            CHANNELS 3 Zrotation Xrotation Yrotation
            End Site
            {
              OFFSET -1.02532e-005 0 7.55606
            }
          }
        }
      }
    }
    JOINT Bip001_R_Thigh
    {
      OFFSET -11.0458 -10.2191 0.0115893
      CHANNELS 3 Zrotation Xrotation Yrotation
      JOINT Bip001_R_Calf
      {
        OFFSET 0.706994 -44.0221 0.35984
        CHANNELS 3 Zrotation Xrotation Yrotation
        JOINT Bip001_R_Foot
        {
          OFFSET 0.651786 -40.5938 -3.5613
          CHANNELS 3 Zrotation Xrotation Yrotation
          JOINT Bip001_R_Toe0
          {
            OFFSET -0.0531479 -10.2181 13.1504
            CHANNELS 3 Zrotation Xrotation Yrotation
            End Site
            {
              OFFSET -1.02894e-005 0 7.55606
            }
          }
        }
      }
    }
    JOINT Bip001_Spine1
    {
      OFFSET 1.87041e-005 14.5736 1.08638
      CHANNELS 3 Zrotation Xrotation Yrotation
      JOINT Bip001_Spine2
      {
        OFFSET 2.24614e-005 14.5058 -1.69078
        CHANNELS 3 Zrotation Xrotation Yrotation
        JOINT Bip001_Neck
        {
          OFFSET 2.20278e-005 15.3945 -0.489414
          CHANNELS 3 Zrotation Xrotation Yrotation
          JOINT Bip001_L_Clavicle
          {
            OFFSET 6.06036 -0.000579998 0.00836775
            CHANNELS 3 Zrotation Xrotation Yrotation
            JOINT Bip001_L_UpperArm
            {
              OFFSET 11.5509 -0.0600302 0.00193952
              CHANNELS 3 Zrotation Xrotation Yrotation
              JOINT Bip001_L_Forearm
              {
                OFFSET 25.9523 0.0806089 -2.15551
                CHANNELS 3 Zrotation Xrotation Yrotation
                JOINT Bip001_L_Hand
                {
                  OFFSET 32.2476 0.153767 1.63968
                  CHANNELS 3 Zrotation Xrotation Yrotation
                  JOINT Bip001_L_Finger0
                  {
                    OFFSET 6.04639 -2.20976 5.90322
                    CHANNELS 3 Zrotation Xrotation Yrotation
                    End Site
                    {
                      OFFSET 4.22376 -1.43895 0.606486
                    }
                  }
                  JOINT Bip001_L_Finger1
                  {
                    OFFSET 11.0826 -0.704819 -0.198153
                    CHANNELS 3 Zrotation Xrotation Yrotation
                    End Site
                    {
                      OFFSET 6.20028 -0.397518 -0.0787166
                    }
                  }
                }
              }
            }
          }
          JOINT Bip001_R_Clavicle
          {
            OFFSET -6.06036 -0.000563197 0.00835105
            CHANNELS 3 Zrotation Xrotation Yrotation
            JOINT Bip001_R_UpperArm
            {
              OFFSET -11.5509 -0.0599978 0.00190698
              CHANNELS 3 Zrotation Xrotation Yrotation
              JOINT Bip001_R_Forearm
              {
                OFFSET -25.9523 0.080682 -2.1559
                CHANNELS 3 Zrotation Xrotation Yrotation
                JOINT Bip001_R_Hand
                {
                  OFFSET -32.2476 0.153858 1.63991
                  CHANNELS 3 Zrotation Xrotation Yrotation
                  JOINT Bip001_R_Finger0
                  {
                    OFFSET -6.04641 -2.20974 5.90321
                    CHANNELS 3 Zrotation Xrotation Yrotation
                    End Site
                    {
                      OFFSET -4.22376 -1.43894 0.606474
                    }
                  }
                  JOINT Bip001_R_Finger1
                  {
                    OFFSET -11.0826 -0.704789 -0.198184
                    CHANNELS 3 Zrotation Xrotation Yrotation
                    End Site
                    {
                      OFFSET -6.20028 -0.397501 -0.0787338
                    }
                  }
                }
              }
            }
          }
          JOINT Bip001_Head
          {
            OFFSET 1.09673e-005 11.2744 2.05948
            CHANNELS 3 Zrotation Xrotation Yrotation
            End Site
            {
              OFFSET 2.89576e-005 20.8808 -2.77728e-005
            }
          }
        }
      }
    }
  }
}
MOTION
Frames:	12
Frame Time:	0.04
32.2738 95.9243 -29.3347 1.15159 -1.10121 3.21729 -0.289061 3.08534 0.0027002 4.71078 -3.70555 7.00095 -0.625133 6.39095 -13.9527 4.49983 -0.722218 -0.198904 -3.12756 -4.65739 5.00858 -3.45523 -3.95482 -3.05182 -0.0256632 11.4435 0.0797094 -5.54009 -10.0899 2.07121 1.96752 -7.01346 2.43751 -0.5785 6.17064 0.019272 -0.579793 6.17066 0.0202129 -0.355427 -3.15151 -6.05801 -23.5087 3.04398 1.75688 -49.0481 40.1459 -3.60318 12.1342 -0.390767 -25.4217 8.40026 0.993136 -1.90074 3.18055e-015 3.18055e-015 -3.18055e-015 3.18055e-015 0 -4.77083e-015 26.7766 11.5518 18.3213 47.5883 -5.58669 -1.53535 -33.9004 -9.66582 72.7725 -30.9776 5.80118 13.3318 -6.36111e-015 -1.59028e-015 -7.95139e-016 -3.18055e-015 -3.97569e-016 -1.59028e-015 -2.01993 14.2514 -5.16232 
32.2541 95.928 -29.4059 1.04525 -0.967918 3.55125 -0.254669 3.06856 0.0098325 4.76553 -3.99053 6.77292 -0.616717 6.48227 -14.0959 4.92277 -0.445364 -0.231909 -2.96371 -4.85728 4.88978 -3.35135 -4.00493 -3.25258 -0.056192 11.313 0.0711231 -5.57162 -9.99421 1.9532 1.96689 -7.01909 2.45068 -0.50909 6.13703 0.0309334 -0.510155 6.13704 0.0322712 -0.653134 -3.28006 -6.11119 -23.1729 3.16094 1.91105 -49.1728 40.1133 -3.53821 12.0657 -0.475244 -25.6565 8.56424 1.16953 -1.80499 -6.36111e-015 6.36111e-015 -0 -6.36111e-015 3.18056e-015 -0 26.749 11.8001 18.7996 49.2811 -13.9853 4.23038 -30.3844 -6.40235 82.0463 -34.6474 6.06381 12.9591 -3.18055e-015 7.25564e-015 -4.96962e-016 -1.26038e-031 3.37934e-015 2.13694e-015 -1.58262 14.2259 -5.43642 
32.2814 95.9361 -29.3727 1.10676 -0.987739 3.51627 -0.266041 3.08583 0.110664 4.62737 -3.83958 6.99236 -0.469725 6.21894 -14.441 4.77253 -0.390171 -0.232472 -3.01874 -4.85908 4.92528 -3.44067 -3.99445 -3.56267 -0.0882388 11.3527 0.152325 -5.50696 -10.0285 2.10967 1.96702 -7.02221 2.4664 -0.541446 6.1711 0.237091 -0.540318 6.17112 0.236711 -0.708108 -3.60744 -6.27088 -23.1419 3.40798 2.17778 -49.1618 40.0408 -3.44667 12.0908 -0.502513 -25.9392 8.47586 1.07384 -1.91203 3.18055e-015 -3.18055e-015 3.18055e-015 -0 0 3.18055e-015 26.2141 12.2021 19.3604 50.6013 -17.6464 9.19381 -29.6571 -5.75752 89.9618 -38.4427 6.37127 12.0713 3.18055e-015 2.38542e-015 -0 3.18055e-015 7.95139e-016 7.95139e-016 -1.3842 14.3328 -5.66069 
32.3212 95.9406 -29.3468 1.2854 -1.10708 3.55371 -0.299325 3.11867 0.158044 4.44482 -3.58798 6.77622 -0.451354 5.91207 -14.3506 4.444 -0.381506 -0.208891 -3.11141 -4.74434 5.00664 -3.63706 -3.9456 -3.86083 -0.083404 11.5285 0.148647 -5.453 -10.1708 2.27364 1.96579 -7.02223 2.47184 -0.608774 6.23661 0.333159 -0.608485 6.23661 0.33318 -0.756535 -3.70548 -6.43297 -23.1405 3.42203 2.41788 -49.0654 39.8752 -3.34454 12.1108 -0.418127 -26.1024 8.64814 1.14098 -1.88035 3.18055e-015 3.18055e-015 -0 3.18055e-015 0 -1.59028e-015 25.3628 12.4015 20.3334 51.9522 -18.4145 14.1762 -30.9203 -6.57211 95.4658 -42.4447 6.54471 11.6767 3.18055e-015 -4.77083e-015 -1.59028e-015 6.36111e-015 -6.36111e-015 -3.18055e-015 -1.23368 14.3358 -5.87563 
32.2117 95.9327 -29.3611 0.942639 -0.936131 3.3718 -0.250798 3.08209 0.238787 4.90847 -3.93957 7.0896 -0.654537 6.39242 -14.5509 5.06793 -0.348339 -0.24038 -2.90657 -4.95792 4.86243 -3.2182 -4.00048 -3.35822 -0.0957805 11.202 0.102028 -5.55384 -9.9184 1.95993 1.96065 -7.02238 2.44511 -0.515693 6.16308 0.490541 -0.515713 6.1631 0.491407 -0.987636 -3.58512 -6.5758 -23.0505 3.23527 2.64702 -49.2091 40.3801 -3.3762 12.564 -0.853177 -25.4431 8.56742 1.01039 -2.11079 -3.18055e-015 -3.18055e-015 1.59028e-015 -1.76556e-031 -6.36111e-015 -1.59028e-015 24.5576 12.4623 21.7179 52.9779 -17.97 19.359 -33.2156 -6.68365 99.583 -46.9988 7.20285 10.7472 3.18055e-015 -1.27222e-014 -1.59028e-015 -2.64834e-031 -9.54167e-015 -1.59028e-015 -0.990222 14.3046 -6.15636 
32.0896 95.9277 -29.4562 0.607785 -0.739337 3.89617 -0.173991 3.03899 0.162716 5.35244 -4.59781 6.42133 -0.826365 7.05569 -14.3022 4.81643 -0.692658 -0.213245 -3.0571 -4.87407 4.95561 -2.84298 -3.98099 -3.58737 -0.142287 10.836 0.0771701 -5.59333 -9.69542 1.81092 1.95962 -7.0078 2.45651 -0.35727 6.07744 0.335411 -0.357334 6.07745 0.335404 -1.29613 -3.33348 -6.55444 -22.897 3.01435 2.62379 -48.7762 39.7335 -3.25223 12.1756 -0.0860319 -25.7577 8.71609 1.07439 -1.91312 3.18055e-015 0 3.18055e-015 -3.18055e-015 0 3.18055e-015 23.4014 12.331 23.5191 54.0146 -16.4356 24.6124 -35.4719 -6.47773 101.291 -51.847 7.51938 10.2656 -3.18055e-015 6.36111e-015 -3.18055e-015 -6.36111e-015 3.18056e-015 -3.18055e-015 -0.75544 14.2047 -6.29922 
32.0872 95.9201 -29.3988 0.70112 -0.92476 3.67993 -0.191137 3.08987 0.23299 5.20135 -4.26718 6.75013 -0.715186 6.79889 -14.5761 5.30115 -0.29961 -0.25312 -2.85215 -5.14374 4.81604 -2.92046 -3.84437 -3.554 -0.132729 10.8654 0.124269 -5.61478 -9.80588 1.85021 1.95934 -7.0384 2.45775 -0.397748 6.17728 0.477127 -0.396727 6.17729 0.477328 -0.95923 0.393224 -3.44449 -23.0545 0.784072 -1.71549 -48.547 39.7353 -3.21579 12.2166 0.0157963 -25.3744 8.65685 1.04123 -1.89644 3.18055e-015 6.36111e-015 3.18055e-015 -2.64834e-031 9.54167e-015 1.59028e-015 21.987 7.70771 23.8655 53.5666 -13.6543 29.6619 -37.4747 -5.53053 99.7256 -56.781 7.70483 10.1142 -1.59028e-015 -6.36111e-015 -6.36111e-015 -3.53113e-031 -6.36111e-015 -3.18055e-015 -1.17245 10.5373 -3.24492 
31.9915 95.9221 -29.4317 0.462027 -0.872636 3.76054 -0.135611 3.08367 0.255196 5.51907 -4.54775 6.46571 -0.814175 7.18699 -14.3532 5.01556 -0.718089 -0.217886 -3.07649 -4.85003 5.01332 -2.65755 -3.76616 -3.51099 -0.131495 10.5405 0.117613 -5.64996 -9.61069 1.74109 1.95719 -7.02932 2.4567 -0.285614 6.16458 0.51884 -0.285615 6.1646 0.518842 -1.00712 0.447642 -3.44872 -23.2334 0.758365 -1.80903 -48.4105 39.8909 -3.0611 12.2245 0.0121593 -25.1657 8.42484 1.06612 -1.74132 1.59028e-015 6.36111e-015 -0 4.77083e-015 9.54167e-015 -1.59028e-015 20.3085 7.63034 25.583 51.1696 -9.29415 34.0966 -39.4938 -3.93436 94.0251 -61.1437 7.47826 10.0946 -4.41391e-031 6.36111e-015 3.97569e-015 1.59028e-015 6.36111e-015 3.97569e-015 -1.32671 10.5653 -3.20812 
31.8055 95.9206 -29.5191 -0.0398862 -0.642739 3.87259 -0.0420083 3.05315 0.286913 6.1949 -5.21441 6.1974 -1.10072 7.91994 -14.1129 5.22896 -0.927087 -0.217921 -3.00698 -4.94629 4.93803 -2.04608 -3.77249 -3.15415 -0.203672 9.9286 0.0394665 -5.75618 -9.22111 1.36966 1.95384 -6.9921 2.4548 -0.099563 6.10613 0.577306 -0.0995627 6.10611 0.577304 -0.848809 0.433337 -3.5706 -23.3822 0.742884 -1.78263 -48.3043 40.0531 -3.20002 12.114 -0.0868438 -24.8877 8.37536 1.04979 -1.65015 -1.76556e-031 -3.18055e-015 -3.18055e-015 3.18055e-015 0 -3.18055e-015 18.2315 7.50383 27.3708 43.4931 -1.51524 36.3906 -42.92 -6.08353 81.497 -57.6392 7.51595 11.0279 -1.59028e-015 0 -4.77083e-015 -3.18055e-015 0 -3.18055e-015 -1.95631 10.5643 -3.09403 
31.6766 95.9209 -29.532 -0.297942 -0.631753 4.06281 0.00510071 3.06042 0.338332 6.59062 -5.51932 6.21637 -1.1938 8.38648 -14.1969 4.82088 -1.40408 -0.177635 -3.12589 -4.66679 5.03933 -1.6794 -3.60449 -3.19428 -0.301702 9.52685 0.0502462 -5.79943 -9.00602 1.22215 1.95274 -6.99501 2.45147 -0.00622175 6.12081 0.677777 -0.0071145 6.12083 0.677745 -0.904988 0.62394 -3.62744 -23.174 0.559843 -1.84702 -48.2683 40.2524 -3.52427 12.0481 -0.153659 -24.6662 8.10665 1.24738 -1.5537 -1.59028e-015 3.18055e-015 -1.59028e-015 -3.18055e-015 6.36111e-015 -1.59028e-015 15.8498 6.95144 29.1566 37.5013 4.17804 39.8537 -47.0436 -7.88431 68.3609 -57.9663 10.5703 12.1003 -3.18055e-015 0 -1.59028e-015 -3.18055e-015 0 -1.59028e-015 -1.62553 10.5781 -3.26261 
31.646 95.9147 -29.4937 -0.278002 -0.830154 4.23984 -0.0162235 3.13745 0.431297 6.58721 -5.39502 6.45185 -1.12126 8.3135 -14.8689 5.02916 -1.17055 -0.196503 -3.1222 -4.89073 5.02317 -1.62844 -3.43268 -3.56595 -0.362887 9.53572 0.100415 -5.78109 -9.05231 1.27928 1.95622 -7.03113 2.46964 -0.0563358 6.2747 0.865478 -0.056299 6.2747 0.865467 -0.820685 0.424178 -3.88623 -23.3323 0.613264 -1.45891 -47.8298 40.3542 -3.95846 11.7987 -1.23388 -25.0585 7.03234 1.43206 -1.24592 -1.59028e-015 -3.18055e-015 -1.59028e-015 -1.59028e-015 -3.18056e-015 -0 15.1526 7.00112 29.3385 43.4631 0.833322 40.7636 -46.3893 -6.19519 70.015 -56.7952 3.65517 12.786 0 0 -1.59028e-015 1.59028e-015 0 -0 -1.28297 10.6326 -3.58479 
31.5122 95.9104 -29.5255 -0.526938 -0.843719 4.60846 -0.0261692 3.1307 0.426894 7.03795 -5.69018 6.89737 -1.22329 8.73063 -15.5938 5.26223 -1.13564 -0.206964 -2.9757 -5.0218 4.87927 -1.18774 -3.26299 -3.66343 -0.477962 9.20635 0.0624322 -5.8159 -8.85206 1.06981 1.95518 -7.01882 2.4725 -0.0747803 6.26113 0.856689 -0.0753778 6.26114 0.856887 0.302881 0.966342 -4.37874 -24.0846 -0.126684 -1.35406 -48.1807 39.0869 -3.57554 11.6914 -0.804818 -25.6132 7.73954 1.35573 -1.5192 8.82781e-032 3.18055e-015 -1.59028e-015 3.18055e-015 9.54167e-015 -0 14.5422 6.35343 28.3136 43.509 0.101919 39.857 -45.0948 -6.64122 74.9595 -58.1749 8.31531 11.5318 1.59028e-015 0 1.59028e-015 3.18055e-015 0 3.18055e-015 -2.3833 10.3683 -3.41475 
